<svg xmlns="http://www.w3.org/2000/svg" xmlns:xlink="http://www.w3.org/1999/xlink" width="500" zoomAndPan="magnify" viewBox="0 0 375 374.999991" height="500" preserveAspectRatio="xMidYMid meet" version="1.0"><defs><clipPath id="5871c34068"><path d="M 52.175781 52.175781 L 322.824219 52.175781 L 322.824219 322.824219 L 52.175781 322.824219 Z M 52.175781 52.175781 " clip-rule="nonzero"/></clipPath><clipPath id="c978803dcb"><path d="M 187.5 52.175781 C 112.761719 52.175781 52.175781 112.761719 52.175781 187.5 C 52.175781 262.238281 112.761719 322.824219 187.5 322.824219 C 262.238281 322.824219 322.824219 262.238281 322.824219 187.5 C 322.824219 112.761719 262.238281 52.175781 187.5 52.175781 Z M 187.5 52.175781 " clip-rule="nonzero"/></clipPath><clipPath id="e93f3de799"><path d="M 52.175781 52.175781 L 322.820312 52.175781 L 322.820312 322.820312 L 52.175781 322.820312 Z M 52.175781 52.175781 " clip-rule="nonzero"/></clipPath><clipPath id="f887f72efe"><path d="M 187.496094 52.175781 C 112.757812 52.175781 52.175781 112.757812 52.175781 187.496094 C 52.175781 262.234375 112.757812 322.820312 187.496094 322.820312 C 262.234375 322.820312 322.820312 262.234375 322.820312 187.496094 C 322.820312 112.757812 262.234375 52.175781 187.496094 52.175781 Z M 187.496094 52.175781 " clip-rule="nonzero"/></clipPath><clipPath id="bb6cd9906d"><path d="M 93.007812 128.570312 L 210.863281 128.570312 L 210.863281 246.429688 L 93.007812 246.429688 Z M 93.007812 128.570312 " clip-rule="nonzero"/></clipPath><clipPath id="de2727965d"><path d="M 166.640625 129 L 282.136719 129 L 282.136719 246 L 166.640625 246 Z M 166.640625 129 " clip-rule="nonzero"/></clipPath></defs><g clip-path="url(#5871c34068)"><g clip-path="url(#c978803dcb)"><path fill="#969595" d="M 52.175781 52.175781 L 322.824219 52.175781 L 322.824219 322.824219 L 52.175781 322.824219 Z M 52.175781 52.175781 " fill-opacity="1" fill-rule="nonzero"/></g></g><g clip-path="url(#e93f3de799)"><g clip-path="url(#f887f72efe)"><path stroke-linecap="butt" transform="matrix(0.75, 0, 0, 0.75, 52.173913, 52.173909)" fill="none" stroke-linejoin="miter" d="M 180.429586 0.0024969 C 80.778538 0.0024969 0.0024909 80.778544 0.0024909 180.429592 C 0.0024909 280.08064 80.778538 360.861896 180.429586 360.861896 C 280.080634 360.861896 360.86189 280.08064 360.86189 180.429592 C 360.86189 80.778544 280.080634 0.0024969 180.429586 0.0024969 Z M 180.429586 0.0024969 " stroke="#000000" stroke-width="2" stroke-opacity="1" stroke-miterlimit="4"/></g></g><g clip-path="url(#bb6cd9906d)"><path fill="#000000" d="M 196.851562 154.867188 C 196.480469 154.496094 196.035156 154.148438 195.636719 153.800781 C 195.214844 153.332031 194.820312 152.835938 194.375 152.390625 C 194.003906 152.019531 193.558594 151.671875 193.160156 151.324219 C 192.742188 150.855469 192.34375 150.359375 191.898438 149.914062 C 191.527344 149.542969 191.082031 149.195312 190.683594 148.851562 C 190.265625 148.378906 189.867188 147.882812 189.421875 147.4375 C 189.050781 147.066406 188.605469 146.722656 188.210938 146.375 C 187.789062 145.902344 187.390625 145.410156 186.945312 144.964844 C 186.574219 144.589844 186.128906 144.246094 185.734375 143.898438 C 185.3125 143.429688 184.917969 142.933594 184.472656 142.488281 C 175.261719 133.324219 162.164062 128.695312 145.546875 128.695312 C 129.28125 128.695312 116.332031 133.425781 107.023438 142.710938 C 97.738281 152.019531 93.007812 165.019531 93.007812 181.359375 C 93.007812 192.972656 95.386719 202.875 100.039062 210.773438 C 102.46875 214.910156 105.339844 218.472656 108.582031 221.46875 C 109.375 222.335938 110.214844 223.152344 111.058594 223.945312 C 111.851562 224.8125 112.691406 225.628906 113.535156 226.421875 C 114.328125 227.289062 115.167969 228.105469 116.011719 228.898438 C 116.800781 229.765625 117.644531 230.582031 118.488281 231.375 C 122.125 235.335938 126.335938 238.480469 131.0625 240.78125 C 138.515625 244.398438 147.925781 246.253906 159.042969 246.253906 C 170.085938 246.253906 179.519531 244.101562 187.070312 239.867188 C 194.746094 235.582031 200.6875 229.492188 204.75 221.765625 C 208.734375 214.191406 210.765625 204.511719 210.765625 192.972656 C 210.765625 176.851562 206.085938 164.027344 196.851562 154.867188 Z M 160.007812 180.21875 C 160.007812 191.511719 157.902344 196.363281 156.144531 198.46875 C 153.769531 201.292969 150.351562 202.675781 145.722656 202.675781 C 145.300781 202.675781 144.878906 202.652344 144.484375 202.628906 C 144.011719 200.101562 143.765625 197.179688 143.765625 193.863281 C 143.765625 185.839844 145.152344 179.972656 147.800781 176.902344 C 150.351562 173.933594 153.546875 172.546875 157.878906 172.546875 C 158.421875 172.546875 158.917969 172.644531 159.4375 172.667969 C 159.808594 174.871094 160.007812 177.398438 160.007812 180.21875 Z M 160.007812 180.21875 " fill-opacity="1" fill-rule="nonzero"/></g><path fill="#ffffff" d="M 97.960938 181.359375 C 97.960938 166.304688 102.144531 154.59375 110.539062 146.226562 C 118.90625 137.832031 130.59375 133.648438 145.546875 133.648438 C 160.875 133.648438 172.710938 137.757812 181.003906 146.003906 C 189.300781 154.246094 193.457031 165.761719 193.457031 180.617188 C 193.457031 191.386719 191.652344 200.226562 188.011719 207.109375 C 184.398438 213.992188 179.148438 219.367188 172.289062 223.203125 C 165.429688 227.042969 156.886719 228.949219 146.6875 228.949219 C 136.289062 228.949219 127.695312 227.289062 120.886719 223.972656 C 114.078125 220.652344 108.558594 215.429688 104.324219 208.25 C 100.066406 201.09375 97.960938 192.128906 97.960938 181.359375 Z M 126.433594 181.484375 C 126.433594 190.792969 128.167969 197.476562 131.609375 201.539062 C 135.074219 205.597656 139.78125 207.628906 145.722656 207.628906 C 151.835938 207.628906 156.566406 205.648438 159.933594 201.664062 C 163.277344 197.675781 164.960938 190.546875 164.960938 180.21875 C 164.960938 171.554688 163.203125 165.214844 159.710938 161.207031 C 156.21875 157.195312 151.464844 155.214844 145.472656 155.214844 C 139.730469 155.214844 135.125 157.242188 131.660156 161.304688 C 128.191406 165.363281 126.433594 172.097656 126.433594 181.484375 Z M 126.433594 181.484375 " fill-opacity="1" fill-rule="nonzero"/><g clip-path="url(#de2727965d)"><path fill="#000000" d="M 275.121094 177.367188 L 282.1875 176.113281 L 280.710938 170.898438 C 278.863281 164.332031 276.007812 158.773438 272.238281 154.394531 C 271.082031 153.066406 256.011719 136.046875 245.371094 132.160156 C 239.757812 130.09375 231.753906 129.085938 220.964844 129.085938 C 209.785156 129.085938 200.625 130.734375 193.753906 134.003906 C 184.886719 138.261719 178.066406 144.605469 173.460938 152.871094 C 168.929688 160.960938 166.640625 170.554688 166.640625 181.328125 C 166.640625 191.558594 168.734375 200.804688 172.847656 208.800781 C 178.65625 220.0625 192.300781 233.863281 203.136719 239.714844 C 210.695312 243.796875 220.425781 245.863281 232.074219 245.863281 C 241.382812 245.863281 249.582031 244.734375 256.476562 242.542969 C 263.347656 240.355469 271.253906 236.222656 279.972656 230.269531 L 282.113281 228.796875 L 282.113281 182.285156 Z M 217.445312 198.863281 L 218.675781 198.863281 L 218.675781 201.324219 L 221.136719 203.707031 C 220.078125 203.707031 219.09375 203.632812 218.132812 203.511719 C 217.839844 202.085938 217.59375 200.535156 217.445312 198.863281 Z M 217.445312 198.863281 " fill-opacity="1" fill-rule="nonzero"/></g><path fill="#ffffff" d="M 221.136719 193.945312 L 221.136719 174.90625 L 264.898438 174.90625 L 264.898438 213.941406 C 256.527344 219.644531 249.113281 223.53125 242.6875 225.574219 C 236.257812 227.640625 228.601562 228.671875 219.785156 228.671875 C 208.898438 228.671875 200.035156 226.828125 193.1875 223.113281 C 186.339844 219.398438 181.023438 213.890625 177.253906 206.5625 C 173.460938 199.230469 171.566406 190.820312 171.566406 181.328125 C 171.566406 171.339844 173.632812 162.660156 177.746094 155.253906 C 181.882812 147.878906 187.917969 142.269531 195.871094 138.433594 C 202.101562 135.480469 210.449219 134.003906 220.964844 134.003906 C 231.085938 134.003906 238.671875 134.914062 243.695312 136.761719 C 248.71875 138.605469 252.882812 141.433594 256.207031 145.292969 C 259.53125 149.15625 262.019531 154.027344 263.667969 159.929688 L 236.332031 164.796875 C 235.199219 161.355469 233.304688 158.699219 230.621094 156.878906 C 227.933594 155.058594 224.511719 154.125 220.324219 154.125 C 214.121094 154.125 209.171875 156.289062 205.476562 160.59375 C 201.78125 164.898438 199.933594 171.710938 199.933594 181.03125 C 199.933594 190.941406 201.804688 198.003906 205.523438 202.257812 C 209.242188 206.511719 214.464844 208.628906 221.113281 208.628906 C 224.289062 208.628906 227.296875 208.160156 230.175781 207.25 C 233.058594 206.339844 236.332031 204.765625 240.050781 202.578125 L 240.050781 193.96875 L 221.136719 193.96875 Z M 221.136719 193.945312 " fill-opacity="1" fill-rule="nonzero"/></svg>